HIERARCHY
ROOT Hips
{
	OFFSET	0.00	0.00	0.00
	CHANNELS 6 Xposition Yposition Zposition Zrotation Xrotation Yrotation
	JOINT LeftUpLeg
	{
		OFFSET	 0.126116	-0.014019	-0.065224
		CHANNELS 3 Zrotation Xrotation Yrotation
		JOINT LeftLeg
		{
			OFFSET	 0.000000	 0.000000	 0.569914
			CHANNELS 3 Zrotation Xrotation Yrotation
			JOINT LeftFoot
			{
				OFFSET	 0.000000	 0.000000	 0.544423
				CHANNELS 3 Zrotation Xrotation Yrotation
				JOINT LeftToeBase
				{
					OFFSET	 0.000000	 0.000000	 0.207117
					CHANNELS 3 Zrotation Xrotation Yrotation
					End Site
					{
						OFFSET	 0.000000	 0.000000	 0.207117
					}
				}
			}
		}
	}
	JOINT RightUpLeg
	{
		OFFSET	-0.124023	-0.008373	-0.065224
		CHANNELS 3 Zrotation Xrotation Yrotation
		JOINT RightLeg
		{
			OFFSET	 0.000000	 0.000000	 0.570047
			CHANNELS 3 Zrotation Xrotation Yrotation
			JOINT RightFoot
			{
				OFFSET	 0.000000	 0.000000	 0.544354
				CHANNELS 3 Zrotation Xrotation Yrotation
				JOINT RightToeBase
				{
					OFFSET	 0.000000	 0.000000	 0.207540
					CHANNELS 3 Zrotation Xrotation Yrotation
					End Site
					{
						OFFSET	 0.000000	 0.000000	 0.207540
					}
				}
			}
		}
	}
	JOINT Spine
	{
		OFFSET	 0.000184	-0.007763	 0.117403
		CHANNELS 3 Zrotation Xrotation Yrotation
		JOINT Spine1
		{
			OFFSET	 0.000000	 0.000000	 0.137269
			CHANNELS 3 Zrotation Xrotation Yrotation
			JOINT Spine2
			{
				OFFSET	 0.000000	 0.000000	 0.156879
				CHANNELS 3 Zrotation Xrotation Yrotation
				JOINT LeftShoulder
				{
					OFFSET	 0.080501	-0.002496	 0.160144
					CHANNELS 3 Zrotation Xrotation Yrotation
					JOINT LeftArm
					{
						OFFSET	 0.000000	 0.000000	 0.164363
						CHANNELS 3 Zrotation Xrotation Yrotation
						JOINT LeftForeArm
						{
							OFFSET	 0.000000	 0.000000	 0.364576
							CHANNELS 3 Zrotation Xrotation Yrotation
							JOINT LeftHand
							{
								OFFSET	 0.000000	 0.000000	 0.360812
								CHANNELS 3 Zrotation Xrotation Yrotation
								JOINT LeftHandIndex1
								{
									OFFSET	 0.000000	 0.000000	 0.086006
									CHANNELS 3 Zrotation Xrotation Yrotation
									JOINT LeftHandIndex2
									{
										OFFSET	 0.000000	 0.000000	 0.047236
										CHANNELS 3 Zrotation Xrotation Yrotation
										JOINT LeftHandIndex3
										{
											OFFSET	-0.004284	-0.000551	 0.038166
											CHANNELS 3 Zrotation Xrotation Yrotation
											End Site
											{
												OFFSET	-0.004284	-0.000551	 0.038166
											}
										}
									}
								}
							}
						}
					}
				}
				JOINT Neck
				{
					OFFSET	 0.000000	 0.000000	 0.176489
					CHANNELS 3 Zrotation Xrotation Yrotation
					JOINT Head
					{
						OFFSET	 0.000000	-0.001747	 0.077940
						CHANNELS 3 Zrotation Xrotation Yrotation
						End Site
						{
							OFFSET	 0.000000	-0.001747	 0.077940
						}
					}
				}
				JOINT RightShoulder
				{
					OFFSET	-0.080363	 0.000306	 0.159706
					CHANNELS 3 Zrotation Xrotation Yrotation
					JOINT RightArm
					{
						OFFSET	 0.000000	 0.000000	 0.164196
						CHANNELS 3 Zrotation Xrotation Yrotation
						JOINT RightForeArm
						{
							OFFSET	 0.000000	 0.000000	 0.365611
							CHANNELS 3 Zrotation Xrotation Yrotation
							JOINT RightHand
							{
								OFFSET	 0.000000	 0.000000	 0.360648
								CHANNELS 3 Zrotation Xrotation Yrotation
								JOINT RightHandIndex1
								{
									OFFSET	 0.000000	 0.000000	 0.069977
									CHANNELS 3 Zrotation Xrotation Yrotation
									JOINT RightHandIndex2
									{
										OFFSET	 0.000000	 0.000000	 0.052305
										CHANNELS 3 Zrotation Xrotation Yrotation
										JOINT RightHandIndex3
										{
											OFFSET	 0.009002	-0.000782	 0.042196
											CHANNELS 3 Zrotation Xrotation Yrotation
											End Site
											{
												OFFSET	 0.009002	-0.000782	 0.042196
											}
										}
									}
								}
							}
						}
					}
				}
			}
		}
	}
}
MOTION
Frames:    8
Frame Time: 0.03333334
 6.950418	 3.845406	 0.490714	-177.572300	-2.001700	-0.132557	 6.267997	-0.919889	-178.126300	-2.721894	-34.498720	 1.080975	 79.723150	 89.980220	-78.928720	-2.376563	 30.351070	-0.041581	 1.766102	-30.791850	 179.561400	 18.149590	-70.424150	 21.517380	-179.207400	 88.857220	-173.346300	 2.378061	 29.776590	 0.030310	-2.815398	 4.470175	 1.583367	-3.844975	-1.670943	 0.869660	-3.232719	-4.288498	-0.334062	-91.788830	 78.270000	 178.861500	 35.494080	 63.088270	-47.929890	-8.870547	-4.312106	-30.058800	 2.959455	-9.967536	-5.445027	-3.812334	 37.924440	-2.927599	-2.450526	 36.184240	 0.754587	-1.378229	 35.397820	-2.634230	-0.330749	 4.080150	-2.054013	-0.321236	-11.902640	-1.547203	 89.789790	 78.558130	 179.498100	-41.748730	 71.404020	 43.476260	 1.754933	-7.616965	 26.162030	-11.640410	-10.985890	 9.754128	 6.437017	 35.671460	-0.771858	 2.830251	 35.756010	-7.813440	-2.350882	 35.473990	 5.254307
 6.945580	 3.892363	 0.488377	-177.370300	-1.649530	-0.644734	 5.978490	 3.056353	-177.284000	-3.165890	-30.589310	 0.937455	 14.994230	 89.738300	-14.396160	-2.374844	 30.669240	-0.048661	 2.035644	-33.153550	 179.764000	 12.779770	-63.592110	 15.655150	-173.031000	 89.022020	-179.231000	 2.378089	 29.769740	 0.030165	-2.379755	 4.351885	 2.168874	-3.144452	-1.793727	 0.869175	-2.266650	-4.449514	-0.237359	-91.769340	 78.653760	 178.776200	 34.970220	 61.992390	-48.932190	-8.658217	-4.500983	-31.553380	 2.818038	-12.167190	-5.488181	-3.812334	 37.924440	-2.927599	-2.450526	 36.184240	 0.754587	-1.378229	 35.397820	-2.634230	-0.366158	 4.210712	-2.469606	 0.019516	-12.198470	-1.340291	 89.781330	 78.168420	 179.457100	-41.637130	 71.536230	 42.774560	 1.937156	-7.699388	 26.960810	-11.016170	-13.167550	 9.838903	 6.437017	 35.671460	-0.771858	 2.830251	 35.756010	-7.813440	-2.350882	 35.473990	 5.254307
 6.941705	 3.939485	 0.486643	-177.224700	-1.225273	-0.869916	 6.286640	 7.660129	-177.001200	-3.493270	-25.089050	 1.112518	 7.656102	 88.865810	-6.652986	-2.367808	 31.877670	-0.075882	 2.296440	-34.712180	 179.722200	 9.600623	-56.020460	 11.846970	-156.599100	 89.412160	 164.711600	 2.385329	 28.237400	-0.003273	-1.868424	 4.144485	 2.434164	-2.346043	-1.925613	 0.898420	-1.274430	-4.569269	-0.134766	-91.759800	 78.823490	 178.755700	 34.615040	 61.073380	-49.827780	-8.638543	-4.501835	-32.562310	 2.403562	-14.521910	-5.539136	-3.812334	 37.924440	-2.927599	-2.450526	 36.184240	 0.754587	-1.378229	 35.397820	-2.634230	-0.338279	 4.339177	-2.778977	 0.313450	-12.410610	-1.239054	 89.777570	 78.009520	 179.448900	-41.542440	 71.722890	 42.347080	 2.056140	-7.707873	 27.149480	-10.523220	-15.479940	 9.942617	 6.437017	 35.671460	-0.771858	 2.830251	 35.756010	-7.813440	-2.350882	 35.473990	 5.254307
 6.937939	 3.989114	 0.484801	-177.065500	-0.790172	-1.066785	 7.506121	 14.383700	-176.825900	-3.895242	-15.667190	 1.479360	 3.863943	 85.588020	-1.171363	-2.354995	 33.798530	-0.120302	 2.745816	-35.440690	 179.716900	 7.052176	-48.463140	 8.871316	-145.099800	 89.592660	 153.250500	 2.388191	 27.554310	-0.017955	-1.298827	 3.844566	 2.631502	-1.463821	-2.082376	 0.976335	-0.211130	-4.658830	-0.022489	-91.754300	 78.918110	 178.745400	 34.338520	 60.498910	-50.527090	-8.656971	-4.506968	-33.038010	 2.080602	-16.973400	-5.607607	-3.812334	 37.924440	-2.927599	-2.450526	 36.184240	 0.754587	-1.378229	 35.397820	-2.634230	-0.236825	 4.405302	-3.037114	 0.647347	-12.496920	-1.119740	 89.775520	 77.916070	 179.457000	-41.406330	 71.979090	 42.105440	 2.076575	-7.646925	 26.649790	-10.200710	-17.914720	 10.068640	 6.437017	 35.671460	-0.771858	 2.830251	 35.756010	-7.813440	-2.350882	 35.473990	 5.254307
 6.935239	 4.041342	 0.482204	-176.744200	-0.793338	-1.270648	 8.260435	 18.927800	-176.899100	-3.996850	-11.618750	 1.578940	 3.630404	 84.124070	 0.255088	-2.329455	 36.930330	-0.196205	 3.195838	-35.851660	 179.781600	 4.544004	-41.838130	 6.288300	-162.025100	 89.398670	 169.537000	 2.378750	 29.639550	 0.027289	-0.755700	 3.726627	 2.732939	-0.536210	-2.192469	 1.076591	 0.953203	-4.715140	 0.101999	-91.752780	 78.936870	 178.722400	 34.450530	 60.255600	-51.412350	-8.673503	-4.501212	-32.907020	 1.809160	-19.695360	-5.696713	-3.812334	 37.924440	-2.927599	-2.450526	 36.184240	 0.754587	-1.378229	 35.397820	-2.634230	-0.132280	 4.346668	-3.218571	 1.039608	-12.398560	-0.891130	 89.774510	 77.895870	 179.413000	-41.220190	 72.324740	 42.015840	 1.958617	-7.503673	 25.378660	-10.059050	-20.617500	 10.230670	 6.437017	 35.671460	-0.771858	 2.830251	 35.756010	-7.813440	-2.350882	 35.473990	 5.254307
 6.933975	 4.094034	 0.480386	-176.253300	-0.887775	-1.284428	 8.341699	 21.546240	-177.687300	-3.459039	-11.607150	 1.663098	 4.300298	 83.853970	 0.002092	-2.299271	 39.894210	-0.272796	 3.191001	-35.407790	 179.660900	 3.122735	-38.070580	 4.823475	-173.191100	 89.093880	 179.970900	 2.369498	 31.337700	 0.065153	-0.372470	 3.874037	 2.514154	 0.262019	-2.213892	 1.119571	 2.023951	-4.715784	 0.216604	-91.758350	 78.832360	 178.688500	 34.997620	 60.407010	-52.284990	-8.614261	-4.500584	-32.111460	 1.663620	-22.340500	-5.799584	-3.812334	 37.924440	-2.927599	-2.450526	 36.184240	 0.754587	-1.378229	 35.397820	-2.634230	-0.111401	 4.223411	-3.238161	 1.395806	-12.178370	-0.561873	 89.776120	 77.995700	 179.318300	-40.662620	 72.755430	 41.529220	 1.882730	-7.328389	 23.950610	-9.977750	-23.251400	 10.413730	 6.437017	 35.671460	-0.771858	 2.830251	 35.756010	-7.813440	-2.350882	 35.473990	 5.254307
 6.933428	 4.148061	 0.478646	-175.826900	-0.984660	-1.243173	 8.523898	 24.140610	-178.704100	-2.631662	-11.587590	 1.795951	 5.131423	 82.594060	-0.111072	-2.258272	 43.145550	-0.363428	 3.060176	-34.577690	 179.404400	 3.035509	-37.391980	 4.622398	 173.801800	 89.366960	-167.170900	 2.369658	 31.309600	 0.064525	 0.018618	 3.790572	 2.271453	 1.020646	-2.154951	 1.106329	 2.991324	-4.633357	 0.318038	-91.762280	 78.759660	 178.650500	 35.801230	 60.887660	-52.926270	-8.526010	-4.466326	-30.736080	 1.581471	-24.825460	-5.911427	-3.812334	 37.924440	-2.927599	-2.450526	 36.184240	 0.754587	-1.378229	 35.397820	-2.634230	-0.104299	 4.163065	-3.238414	 1.694392	-11.913260	-0.145990	 89.778200	 78.071770	 179.299600	-39.692890	 73.219890	 40.447220	 1.830942	-7.132715	 22.555460	-9.898094	-25.728530	 10.610990	 6.437017	 35.671460	-0.771858	 2.830251	 35.756010	-7.813440	-2.350882	 35.473990	 5.254307
 6.933849	 4.214708	 0.476333	-175.378000	-1.180933	-1.091215	 8.989332	 27.055640	 179.766700	-1.709797	-11.563340	 1.947939	 5.718743	 79.524920	 0.245870	-2.191879	 47.269170	-0.491044	 2.721573	-33.286620	 178.836500	 4.584973	-39.163330	 5.691321	 8.647568	 88.914470	-1.229019	 2.379590	 29.470790	 0.023581	 0.524095	 3.298161	 1.984113	 1.935031	-2.019351	 1.026710	 4.088094	-4.404613	 0.426633	-91.764500	 78.715510	 178.597900	 36.802990	 61.854470	-52.937040	-8.440805	-4.364638	-28.634960	 1.493377	-27.616760	-6.056354	-3.812334	 37.924440	-2.927599	-2.450526	 36.184240	 0.754587	-1.378229	 35.397820	-2.634230	-0.039288	 4.288459	-3.277577	 2.034169	-11.586630	 0.458759	 89.780040	 78.127930	 179.352200	-38.041650	 73.699160	 38.331800	 1.706971	-6.874819	 20.998760	-9.751282	-28.512270	 10.865180	 6.437017	 35.671460	-0.771858	 2.830251	 35.756010	-7.813440	-2.350882	 35.473990	 5.254307
